<svg id="Layer_1" data-name="Layer 1" xmlns="http://www.w3.org/2000/svg" viewBox="0 0 1920 1080"><defs><style>.cls-1{fill:#494949;}.cls-2{fill:#2f9af2;}</style></defs><path class="cls-1" d="M1134.43,731H873a8.25,8.25,0,0,1-8.25-8.25V369.85A8.25,8.25,0,0,1,873,361.6h188.72a8.24,8.24,0,0,1,6.15,2.75l72.69,81.31a8.28,8.28,0,0,1,2.1,5.51V722.75A8.26,8.26,0,0,1,1134.43,731ZM881.29,714.49h244.89V454.32l-68.12-76.21H881.29Z"/><path class="cls-1" d="M1061.74,460.91a8.26,8.26,0,0,1-8.26-8.26v-82.8a8.26,8.26,0,0,1,14.42-5.5l72.62,81.36a8.26,8.26,0,0,1-6,13.75l-72.62,1.45Zm8.25-69.42v52.74l46.26-.92Z"/><path class="cls-2" d="M1097.63,575.93A93.61,93.61,0,1,0,998,669.32l-4.84,4.84a8.25,8.25,0,1,0,11.67,11.67s8.45-9.16,9-9.74l13.61-13.61a3.57,3.57,0,0,0,0-5l-13.61-13.62c-.57-.57-9-9.72-9-9.72a8.25,8.25,0,1,0-11.67,11.67l7.16,7.16a77.19,77.19,0,1,1,32.63-5.58l2.31,2.3a14.57,14.57,0,0,1,4,13A93.73,93.73,0,0,0,1097.63,575.93Z"/><path class="cls-2" d="M1039.54,541.91a14.67,14.67,0,0,1-3.35,5.27l-7.41,7.4a30.65,30.65,0,1,1-29.17-10l-6.45,6.45a8.25,8.25,0,1,0,11.67,11.67L1020,547.59s8.41-8.19,8.41-8.19a3.56,3.56,0,0,0,0-5l-2-2a12.85,12.85,0,0,1-1.55-1.31l-20-20a8.25,8.25,0,0,0-11.67,11.67l5.37,5.36a47.29,47.29,0,1,0,41,13.86Z"/></svg>